<svg width="382" height="224" viewBox="0 0 382 224" fill="none" xmlns="http://www.w3.org/2000/svg">
<path d="M146.969 175.113C146.99 174.395 145.862 174.307 145.832 175.045C145.778 176.693 145.375 178.31 144.651 179.792C144.573 179.708 144.476 179.643 144.368 179.604C144.26 179.564 144.144 179.55 144.03 179.564C142.039 180.064 140.265 181.189 138.971 182.773C138.146 183.792 137.069 184.581 135.845 185.062C134.621 185.543 133.292 185.7 131.988 185.517C129.439 185.146 126.841 185.295 124.352 185.956C121.953 186.86 119.908 188.786 117.305 189.047C114.4 189.352 111.585 187.879 108.653 188.161C105.976 188.653 103.425 189.672 101.151 191.158C96.9576 193.395 96.0996 192.676 91.7474 191.819C84.4349 190.352 82.8591 195.896 76.0603 194.918C73.5365 194.577 70.6519 194.023 68.6313 195.936C66.6161 193.702 67.0696 187.581 67.1011 185.493C67.1006 185.145 66.5375 185.002 66.4734 185.369C65.2826 191.007 66.0389 197.853 72.2418 200.117C77.7187 202.129 86.8084 200.757 92.9169 199.842C104.152 198.183 124.443 193.938 134.613 189.699C140.727 187.165 146.752 182.27 146.969 175.113ZM110.354 161.299C108.797 162.834 107.646 164.727 107.002 166.81C109.107 167.567 111.244 168.48 113.414 169.24C114.394 165.767 116.521 162.723 119.454 160.599L119.431 160.598C117.861 160.022 116.379 159.229 115.031 158.244C113.285 158.948 111.696 159.986 110.354 161.299Z" fill="#191919"/>
<path d="M70.9023 186.668C75.8684 188.138 80.0511 185.971 88.9385 186.259C95.3529 186.506 101.738 187.639 108.181 187.403C114.624 187.166 120.82 185.21 126.991 183.629C132.11 182.32 137.74 181.327 142.133 178.18C147.955 174.019 147.876 168.052 143.76 165.974C140.193 164.209 135.252 165.274 129.467 165.28C128.035 162.694 123.483 162.126 121.06 161.479C120.798 161.615 120.546 161.77 120.306 161.943C117.553 163.99 115.499 166.844 114.426 170.112C118.052 171.595 122.085 171.733 125.804 170.501C127.493 169.85 129.817 168.172 129.772 166.311C133.406 165.968 137.062 165.934 140.7 166.21C147.13 167.089 147.021 173.028 141.707 177.089C137.72 180.104 132.465 181.054 127.749 182.255C122.204 183.935 116.546 185.21 110.819 186.07C105.026 186.379 99.2175 186.145 93.4685 185.371C88.0064 184.801 82.4923 184.979 77.0774 185.901C69.4728 186.661 66.3241 183.448 65.8755 178.731C65.7743 176.363 65.915 173.991 66.2953 171.653C66.5997 169.127 67.6205 166.023 70.8235 167.341C73.381 168.4 74.5973 171.255 77.1029 172.472C78.1111 172.958 79.2214 173.192 80.3393 173.154C81.4572 173.117 82.5496 172.808 83.5236 172.255C85.3624 170.883 86.9276 169.175 88.1372 167.221C89.6154 165.331 91.6785 163.99 94 163.41C95.3067 164.561 96.9889 165.188 98.7265 165.173C99.4058 162.343 100.826 159.746 102.839 157.652C104.852 155.558 107.386 154.043 110.177 153.263C108.846 151.152 106.778 149.617 104.378 148.959C102.853 148.706 101.29 148.839 99.829 149.347C98.3682 149.855 97.0569 150.721 96.0141 151.868C94.8369 153.203 94.0405 154.833 93.7092 156.585C93.6057 156.666 93.5312 156.778 93.497 156.905C92.827 158.744 92.8085 160.759 93.4446 162.61C88.0941 163.875 87.111 167.548 84.4284 170.195C83.3297 171.328 81.8286 171.977 80.2546 171.999C78.6806 172.022 77.1622 171.416 76.0327 170.315C74.2163 168.654 72.8036 166.473 70.259 165.945C69.4929 165.726 68.6749 165.778 67.9423 166.093C67.2098 166.408 66.6071 166.966 66.2356 167.674C66.1051 167.385 65.909 167.131 65.6632 166.932C63.8249 165.345 60.8386 167.932 61.8373 170.576C62.1147 171.209 62.5474 171.76 63.0949 172.179C63.8046 172.838 64.378 173.632 64.7825 174.514C64.3525 177.275 64.7038 180.102 65.7963 182.671C66.3416 183.644 67.0738 184.498 67.9503 185.184C68.8268 185.871 69.8302 186.375 70.9023 186.668ZM63.5363 170.764C63.3296 170.517 63.1755 170.229 63.0832 169.92C62.9909 169.61 62.9625 169.285 62.9996 168.964C63.0594 168.665 63.2096 168.392 63.4295 168.182C63.6495 167.972 63.9286 167.835 64.2287 167.79C65.3046 167.765 65.2909 169.234 65.3539 169.834C65.1681 170.574 65.0356 171.328 64.9574 172.088C64.506 171.618 63.9385 171.184 63.544 170.765L63.5363 170.764Z" fill="#191919"/>
<path d="M99.7197 165.034C101.881 165.42 104.012 165.965 106.093 166.665C106.723 164.504 107.875 162.53 109.449 160.917C110.803 159.529 112.399 158.397 114.158 157.577C112.985 156.568 111.937 155.422 111.037 154.165C108.345 154.796 105.874 156.138 103.882 158.051C101.891 159.963 100.453 162.375 99.7197 165.034ZM253.718 163.655C253.59 162.922 252.471 163.163 252.605 163.895C252.888 165.526 252.819 167.199 252.401 168.8C252.297 168.738 252.181 168.698 252.061 168.683C251.941 168.668 251.819 168.679 251.703 168.714C249.806 169.653 248.264 171.178 247.306 173.061C246.689 174.211 245.784 175.182 244.678 175.878C243.572 176.574 242.303 176.971 240.997 177.031C238.442 177.174 235.945 177.846 233.666 179.007C231.377 180.471 229.693 182.917 226.926 183.565C224.113 184.232 221.166 183.442 218.377 184.416C215.918 185.49 213.685 187.018 211.795 188.919C208.465 191.748 207.109 191.336 203.09 191.321C197.56 191.312 195.475 194.448 192.656 196.187C191.239 197.057 189.616 197.536 187.952 197.576C185.414 197.71 182.545 197.832 180.959 200.078C180.916 200.054 180.898 200.009 180.855 199.985C178.311 197.288 177.982 193.515 177.327 190.075C177.308 190 177.263 189.935 177.201 189.89C177.138 189.846 177.062 189.824 176.985 189.83C176.909 189.836 176.836 189.869 176.782 189.923C176.727 189.977 176.693 190.049 176.687 190.125C176.666 196.048 178.915 202.633 185.575 203.535C191.261 204.313 199.596 201.257 205.539 199.081C216.076 195.244 235.134 187.049 244.417 180.72C249.991 176.863 254.984 170.837 253.718 163.655ZM205.082 163.091C207.281 163.038 209.481 163.146 211.664 163.415C211.855 161.115 212.614 158.899 213.873 156.964C214.915 155.404 216.208 154.027 217.702 152.889C216.347 152.13 215.086 151.215 213.947 150.162C211.446 151.331 209.305 153.147 207.746 155.421C206.187 157.694 205.267 160.342 205.082 163.091Z" fill="#191919"/>
<path d="M182.157 190.185C187.045 190.067 189.663 187.497 199.426 185.958C205.552 185.02 211.789 184.794 217.814 183.298C223.732 181.488 229.445 179.069 234.863 176.079C239.818 173.661 245.486 171.501 249.246 167.287C253.911 162.043 252.533 156.512 248.407 155.296C245.589 154.443 242.422 155.359 239.689 156.058C233.255 157.712 234.18 157.498 233.961 157.372C232.183 155.37 227.168 155.626 224.935 155.468C222.286 158.096 220.616 161.551 220.205 165.26C223.919 165.931 227.751 165.327 231.078 163.545C232.657 162.601 235.078 160.47 234.536 158.453C237.804 157.698 241 156.65 244.336 156.209C251.494 155.278 252.84 161.032 248.759 166.119C245.521 170.097 240.413 172.133 235.913 174.317C230.785 177.092 225.464 179.494 219.991 181.506C212.405 183.905 204.067 183.795 195.969 185.398C189.174 186.795 185.014 189.605 180.308 188.922C179.006 188.744 177.778 188.212 176.757 187.385C175.736 186.557 174.961 185.466 174.516 184.229C173.807 182.05 173.406 179.783 173.328 177.493C173.133 175.186 172.624 171.138 176.062 171.208C178.884 171.266 180.781 173.873 183.309 174.818C184.357 175.196 185.481 175.32 186.587 175.179C187.693 175.037 188.75 174.635 189.669 174.005C193.667 171.17 192.617 165.656 198.787 162.804C200.276 163.657 202.027 163.934 203.707 163.582L203.772 163.586C203.847 161.038 204.529 158.544 205.763 156.313C206.998 154.083 208.747 152.18 210.867 150.763C211.398 150.396 211.994 150.013 212.61 149.652C210.964 147.936 208.763 146.859 206.399 146.612C204.856 146.611 203.339 146.997 201.984 147.734C200.63 148.471 199.482 149.536 198.644 150.831C196.844 153.62 196.143 159.725 198.084 162.144C192.688 164.616 192.877 168.808 190.334 171.969C188.048 174.792 184.575 174.562 181.815 172.699C179.884 171.422 177.947 169.821 175.481 170.093C174.784 170.163 174.122 170.433 173.576 170.871C173.029 171.309 172.621 171.895 172.4 172.56C172.186 172.276 171.905 172.05 171.583 171.9C171.26 171.751 170.906 171.684 170.551 171.704C170.196 171.724 169.852 171.832 169.549 172.017C169.245 172.202 168.992 172.459 168.812 172.765C168.454 173.267 168.248 173.863 168.219 174.48C168.19 175.096 168.34 175.708 168.65 176.242C169.063 176.832 169.62 177.306 170.267 177.619C171.064 178.061 171.746 178.684 172.257 179.438C172.62 179.847 172.566 184.944 175.575 187.868C176.462 188.675 177.501 189.296 178.631 189.693C179.762 190.091 180.961 190.258 182.157 190.185ZM170.376 176.087C169.617 175.531 169.113 173.959 170.123 173.29C171.226 172.562 171.736 173.628 172.022 174.749C171.997 175.546 172.014 176.343 172.074 177.137C171.522 176.75 170.856 176.443 170.376 176.087Z" fill="#191919"/>
<path d="M213.438 163.944C215.67 164.27 217.959 164.764 220.258 165.076C220.514 161.434 221.985 157.982 224.438 155.273C222.765 155.022 221.136 154.535 219.6 153.826C217.881 154.946 216.435 156.436 215.369 158.187C214.303 159.938 213.643 161.905 213.438 163.944ZM93.5622 25.3173C92.9489 25.2383 91.0283 26.0037 90.8803 25.1347C90.765 24.4668 89.7597 24.6931 89.8519 25.3597C89.9265 25.7037 90.1138 26.0131 90.3841 26.2392C90.6545 26.4653 90.9926 26.5951 91.345 26.6082C91.8366 26.6117 92.3256 26.537 92.7936 26.387C93.1307 26.3209 93.4786 26.3345 93.8095 26.4267C94.1404 26.5188 94.4451 26.687 94.6993 26.9178C94.7703 26.9643 94.8548 26.9861 94.9395 26.98C95.0242 26.9738 95.1045 26.94 95.1681 26.8837C95.2316 26.8274 95.2747 26.7518 95.2909 26.6686C95.3071 26.5854 95.2953 26.4992 95.2575 26.4233C95.0855 26.1159 94.8414 25.8547 94.5461 25.6621C94.2509 25.4695 93.9132 25.3512 93.5622 25.3173ZM97.8114 31.4733C97.4332 31.7239 97 31.8798 96.5485 31.9279C96.4243 31.9526 96.3149 32.0255 96.2446 32.1306C96.1742 32.2357 96.1486 32.3644 96.1734 32.4884C96.1981 32.6124 96.2712 32.7215 96.3766 32.7918C96.482 32.862 96.611 32.8876 96.7352 32.863C97.6741 32.6772 99.4113 32.0324 99.3272 30.8366C99.1235 30.0674 98.8433 29.3203 98.4909 28.6065C98.3654 27.7609 98.1787 26.9254 97.9321 26.1067C97.9018 26.0472 97.8543 25.9981 97.7959 25.9656C97.7375 25.9331 97.6706 25.9188 97.604 25.9243C97.5373 25.9299 97.4739 25.9552 97.4217 25.9969C97.3695 26.0387 97.331 26.095 97.3111 26.1587C97.1429 27.6548 97.4059 29.1678 98.0694 30.5202C98.2158 30.9909 98.2944 31.1038 97.8114 31.4733ZM92.3174 32.1616C92.2707 32.0776 92.1985 32.0106 92.1112 31.9702C92.0238 31.9298 91.9259 31.9181 91.8315 31.9368C91.7371 31.9554 91.6512 32.0035 91.5859 32.0741C91.5207 32.1447 91.4797 32.2342 91.4687 32.3296C91.1823 34.1856 89.9756 38.1674 92.4351 39.1274C94.7072 40.0125 96.3671 36.8483 96.7985 35.1593C96.8116 34.9878 96.7634 34.8173 96.6624 34.6779C96.5615 34.5385 96.4143 34.4392 96.2471 34.3978C95.4614 34.3628 94.6952 34.1418 94.0119 33.753C93.3286 33.3641 92.7478 32.8186 92.3174 32.1616ZM95.8553 35.0588C95.5257 36.1219 94.912 37.0751 94.08 37.8161C93.9125 37.9324 93.7199 38.0079 93.5178 38.0366C93.3157 38.0654 93.1096 38.0464 92.9162 37.9814C92.7227 37.9163 92.5471 37.8069 92.4036 37.662C92.26 37.5171 92.1525 37.3407 92.0895 37.1468C91.9142 35.9092 91.9738 34.6498 92.2652 33.4343C92.7239 33.9315 93.2781 34.3315 93.8949 34.6106C94.5117 34.8897 95.1784 35.0421 95.8553 35.0588ZM147.537 66.2196C146.835 67.7492 146.485 69.416 146.511 71.0984C146.537 72.7808 146.94 74.4363 147.689 75.9439C147.733 76.0225 147.804 76.0831 147.888 76.1153C147.972 76.1475 148.066 76.1492 148.151 76.12C148.237 76.0909 148.309 76.0328 148.356 75.9558C148.403 75.8789 148.422 75.7879 148.409 75.6987C147.904 72.4077 146.916 71.827 148.314 66.5093C148.353 66.4065 148.349 66.2926 148.303 66.1928C148.257 66.0929 148.174 66.0152 148.071 65.9768C147.968 65.9384 147.854 65.9424 147.754 65.9879C147.654 66.0334 147.576 66.1167 147.537 66.2196ZM89.7304 162.494C84.8097 161.388 77.5841 162.335 72.6915 163.596C72.2194 142.16 72.7058 120.34 79.0975 99.878C79.9139 97.2841 80.9259 94.7231 81.6778 92.106C81.7894 91.6932 81.193 91.3291 80.9702 91.7546C77.4321 98.5302 74.6501 111.272 73.4475 118.841C71.3668 133.893 70.7374 149.109 71.568 164.281C71.5928 164.613 71.8809 164.982 72.2612 164.873C80.2359 162.533 85.2377 163.383 89.5443 163.411C90.0747 163.417 90.2963 162.621 89.7304 162.494ZM50.1242 130.953C48.4922 130.216 47.7834 128.744 46.6507 127.461C46.5675 127.369 46.4542 127.31 46.3313 127.295C46.2084 127.28 46.0842 127.31 45.9813 127.378C45.8784 127.447 45.8036 127.55 45.7706 127.669C45.7376 127.788 45.7486 127.915 45.8016 128.027C46.2228 129.037 46.8612 129.943 47.6718 130.68C48.4824 131.416 49.4452 131.967 50.4923 132.291C51.2899 132.536 52.1446 132.523 52.9338 132.253C53.7231 131.983 54.4064 131.471 54.8858 130.79C57.489 132.081 60.1626 133.225 62.8942 134.217C63.9948 134.637 65.4192 135.183 66.3831 134.183C66.5411 134.01 66.6612 133.806 66.7358 133.584C66.8105 133.362 66.838 133.127 66.8167 132.894C66.7954 132.66 66.7256 132.434 66.612 132.229C66.4983 132.024 66.3431 131.845 66.1564 131.703C64.2179 129.765 62.5143 129.877 54.1369 121.076C54.111 121.047 54.0796 121.024 54.0446 121.007C54.0096 120.99 53.9716 120.98 53.9328 120.978C53.894 120.976 53.8551 120.981 53.8184 120.994C53.7817 121.007 53.7479 121.027 53.7189 121.052C53.6899 121.078 53.6663 121.109 53.6494 121.144C53.6325 121.179 53.6226 121.217 53.6204 121.256C53.6182 121.295 53.6237 121.333 53.6365 121.37C53.6493 121.407 53.6692 121.441 53.6951 121.469C56.5226 125.259 59.9187 128.59 63.7638 131.346C63.9342 131.478 64.5568 131.825 65.0174 132.159C65.0942 132.215 65.1587 132.286 65.2068 132.368C65.2549 132.45 65.2856 132.541 65.2969 132.636C65.3082 132.73 65.3 132.825 65.2726 132.916C65.2453 133.007 65.1994 133.092 65.1379 133.164C64.5142 133.883 63.7464 133.371 63.009 133.13C53.4455 129.533 53.0341 128.205 50.1744 126.22C49.7498 125.932 49.319 126.5 49.6069 126.871C50.8416 128.343 52.3611 129.551 54.0746 130.423C53.5386 130.884 52.8799 131.179 52.1786 131.273C51.4772 131.368 50.7635 131.256 50.1242 130.953Z" fill="#191919"/>
<path d="M115.756 82.2822C114.214 70.6037 108.648 67.6873 97.2797 68.3178C84.6146 69.0155 72.3293 74.3893 62.024 82.097C60.8149 82.0676 59.6061 82.1562 58.4148 82.3615C51.6743 83.3633 43.0768 86.0668 38.2366 90.7809C37.6785 89.0138 37.0971 87.2696 36.4924 85.5485C41.6857 81.2863 43.2732 82.004 45.4583 80.3582C45.5174 80.3041 45.5594 80.2341 45.5793 80.1567C45.5991 80.0793 45.5959 79.9979 45.57 79.9222C45.5441 79.8466 45.4967 79.78 45.4335 79.7305C45.3703 79.681 45.294 79.6508 45.2138 79.6434C43.406 79.9219 41.6873 80.6096 40.1909 81.6534C38.7402 82.4675 37.3741 83.4218 36.1125 84.5024C34.7298 80.6266 33.2118 76.8094 31.5585 73.0508C31.2638 72.3984 30.2857 72.9097 30.5587 73.5685C34.9887 83.6304 38.4142 94.0984 40.786 104.822C41.0766 105.732 41.273 106.668 41.3722 107.617C41.3709 109.11 39.9305 109.573 38.8732 110.276C35.9595 112.254 33.3485 114.638 31.1209 117.356C24.6485 109.361 16.8952 97.9615 13.087 88.4125C10.7507 83.0783 10.0333 77.1848 11.0226 71.455C13.5875 59.6147 26.1972 54.8507 37.4807 48.7883C37.5734 48.7352 37.6421 48.6489 37.6728 48.547C37.7035 48.4452 37.6938 48.3355 37.6457 48.2405C37.5976 48.1455 37.5147 48.0722 37.414 48.0358C37.3134 47.9994 37.2025 48.0025 37.1042 48.0445C31.2788 50.4108 25.7157 53.368 20.5032 56.8689C15.8807 59.65 12.3374 63.8955 10.4441 68.9216C6.65073 80.3965 12.7799 92.1206 18.5907 101.76C22.1015 107.514 25.9935 113.031 30.2408 118.273C31.5213 119.639 32.5056 121.252 33.1327 123.01C34.4972 126.148 36.5651 132.491 39.955 133.7C40.3592 133.861 40.797 133.92 41.2295 133.873C41.6621 133.826 42.0761 133.673 42.4347 133.428C42.833 133.083 43.1403 132.646 43.33 132.156C44.1163 132.793 45.0964 133.148 46.111 133.163C47.1256 133.178 48.1151 132.852 48.9189 132.238C48.9859 132.18 49.0293 132.099 49.0408 132.011C49.0523 131.923 49.0312 131.834 48.9815 131.761C48.9318 131.687 48.8567 131.634 48.7705 131.611C48.6842 131.588 48.5925 131.598 48.5126 131.637C47.8245 131.982 47.0529 132.131 46.2842 132.066C45.5154 132.001 44.7799 131.725 44.1599 131.268C43.0263 130.398 42.0377 129.355 41.2303 128.18C40.9449 127.763 40.4422 128.395 40.5779 128.755C41.0243 129.863 41.7482 130.841 42.6811 131.594C42.7641 131.665 42.6542 131.785 42.5546 131.929C41.1432 133.994 38.8412 131.599 37.9229 130.317C35.5756 127.051 34.5696 122.018 31.9048 118.224C33.2392 116.521 34.7377 114.951 36.3791 113.536C38.1228 112.045 41.4324 110.033 41.5681 109.805C44.5471 114.022 53.154 111.519 55.7735 116.109C56.2632 116.983 56.4876 117.978 56.4195 118.975C56.36 119.98 55.7828 120.757 55.6601 121.714C55.6564 121.788 55.6722 121.862 55.7059 121.928C55.7395 121.994 55.79 122.051 55.8522 122.092C55.9144 122.133 55.9864 122.157 56.0609 122.163C56.1355 122.168 56.2101 122.154 56.2775 122.122C57.6967 121.265 57.8263 118.884 57.5243 117.44C57.334 116.51 56.9321 115.635 56.3493 114.882C55.7664 114.13 55.018 113.519 54.1613 113.097C52.3051 112.283 50.328 111.776 48.3078 111.594C46.0391 111.478 43.8854 110.564 42.2312 109.017C42.5629 108.027 42.5583 106.957 42.2181 105.969C41.201 101.152 39.9653 96.3832 38.5149 91.6766C40.1945 90.5471 41.7902 89.3281 43.5586 88.3366C48.8842 85.5268 54.7031 83.7544 60.7018 83.115C54.7463 87.7577 49.4667 93.1959 45.0128 99.275C44.7494 99.6307 45.295 100.104 45.6036 99.7699C51.6393 92.6088 58.5069 86.1813 66.0635 80.6212C73.9153 75.1164 82.9257 71.4546 92.4151 69.912C97.1694 68.9273 102.089 69.0401 106.795 70.2416C111.559 71.8406 113.532 76.1883 114.342 80.7746C116.22 91.1899 113.721 102.045 111.115 112.106C108.062 123.338 104.251 134.353 99.7066 145.076C99.4501 145.674 100.382 145.97 100.657 145.396C105.315 135.341 109.019 124.876 111.721 114.137C114.494 103.888 117.17 92.9797 115.756 82.2822ZM193.128 160.779C188.79 161.904 184.691 163.792 181.025 166.352C168.788 152.574 159.425 136.525 153.479 119.135C153.233 118.439 152.094 118.656 152.338 119.373C158.388 137.122 167.944 153.497 180.447 167.539C180.533 167.64 180.652 167.708 180.784 167.732C180.915 167.756 181.051 167.734 181.168 167.671C185.025 165.237 189.096 163.152 193.331 161.443C193.407 161.407 193.467 161.344 193.5 161.268C193.534 161.191 193.539 161.106 193.514 161.026C193.49 160.946 193.438 160.877 193.367 160.832C193.296 160.787 193.212 160.768 193.128 160.779ZM153.085 114.227C143.641 117.723 133.855 120.236 123.885 121.726C117.496 122.654 116.106 122.398 114.173 123.099C114.116 123.129 114.069 123.175 114.039 123.231C114.008 123.287 113.995 123.351 114 123.414C114.006 123.478 114.031 123.538 114.071 123.588C114.111 123.638 114.165 123.675 114.226 123.695C115.76 123.898 117.316 123.872 118.842 123.617C129.04 122.59 139.085 120.407 148.78 117.111C150.399 116.642 151.978 116.046 153.503 115.331C153.624 115.259 153.716 115.147 153.762 115.015C153.809 114.883 153.807 114.738 153.757 114.607C153.708 114.476 153.613 114.366 153.491 114.296C153.368 114.227 153.224 114.203 153.085 114.227Z" fill="#191919"/>
<path d="M67.4695 137.057C64.5697 137.147 63.2041 138.442 56.5136 138.044C52.7133 137.717 48.9915 136.852 45.5017 135.486C45.4079 135.463 45.308 135.468 45.2196 135.501C45.1311 135.534 45.0599 135.593 45.0183 135.667C44.9767 135.741 44.9675 135.826 44.9923 135.907C45.0171 135.987 45.0743 136.058 45.1538 136.107C51.2884 140.11 64.436 139.762 67.7828 137.772C67.8469 137.715 67.8907 137.644 67.9092 137.567C67.9277 137.49 67.9201 137.409 67.8874 137.335C67.8547 137.26 67.7982 137.195 67.7243 137.145C67.6503 137.096 67.5621 137.065 67.4695 137.057Z" fill="#191919"/>
<path d="M97.8538 24.4203C98.0451 24.4317 98.2355 24.3866 98.4008 24.2909C98.5661 24.1952 98.699 24.053 98.7825 23.8825C98.8661 23.7119 98.8967 23.5206 98.8704 23.3327C98.8441 23.1447 98.7621 22.9687 98.6347 22.8268C98.5074 22.6849 98.3404 22.5834 98.155 22.5354C97.9695 22.4873 97.7739 22.4947 97.5928 22.5566C97.4118 22.6185 97.2534 22.7323 97.1378 22.8834C97.0222 23.0345 96.9545 23.2162 96.9432 23.4055C96.9312 23.6586 97.0198 23.9065 97.1899 24.0961C97.3601 24.2858 97.5983 24.4021 97.8538 24.4203ZM91.2554 172.202C92.1008 176.312 97.9684 178.007 101.489 178.722C103.71 179.22 105.999 179.348 108.261 179.101C109.867 178.913 113.305 178.395 113.938 176.659C113.97 176.563 113.979 176.461 113.965 176.362C113.952 176.262 113.915 176.166 113.858 176.082C113.801 175.999 113.726 175.929 113.637 175.879C113.549 175.828 113.45 175.799 113.348 175.792C112.494 175.632 111.796 176.203 111.027 176.509C106.18 177.917 100.975 177.482 96.4308 175.29C94.7397 174.44 93.2272 173.281 91.9739 171.872C91.9172 171.8 91.8378 171.75 91.7485 171.729C91.6592 171.707 91.5653 171.716 91.482 171.755C91.3988 171.793 91.3311 171.858 91.29 171.939C91.2488 172.02 91.2366 172.113 91.2554 172.202ZM197.387 173.978C199.42 177.778 205.667 177.623 209.315 177.293C211.522 177.122 213.684 176.592 215.714 175.725C217.123 175.086 220.354 173.57 220.372 171.798C220.375 171.698 220.356 171.598 220.315 171.506C220.275 171.414 220.214 171.333 220.137 171.267C220.06 171.202 219.969 171.154 219.872 171.128C219.774 171.102 219.671 171.098 219.572 171.116C218.749 171.177 218.264 171.892 217.637 172.381C214.044 175.241 208.294 176.052 203.734 175.516C201.684 175.234 199.715 174.535 197.95 173.464C197.628 173.293 197.166 173.615 197.387 173.978Z" fill="#EF233C"/>
<path d="M348.58 126.05C348.516 115.97 349.09 105.938 349.902 95.9265C349.908 95.7534 349.863 95.5824 349.772 95.4345C349.681 95.2865 349.55 95.168 349.392 95.0934C349.235 95.0189 349.06 94.9914 348.887 95.0146C348.715 95.0377 348.553 95.1103 348.422 95.2236C339.606 101.42 331.218 108.198 323.316 115.513C323.164 115.66 323.069 115.856 323.047 116.066C323.025 116.275 323.078 116.486 323.197 116.661C323.316 116.836 323.493 116.963 323.696 117.022C323.9 117.08 324.118 117.065 324.311 116.98C327.122 118.417 329.97 119.78 332.853 121.067C322.272 139.649 309.715 159.74 296.601 178.57C292.356 172.036 291.015 170.238 289.513 168.198C288.582 166.979 287.583 165.812 286.521 164.703C286.627 164.426 286.646 164.123 286.574 163.835C286.503 163.546 286.345 163.287 286.122 163.09C285.899 162.893 285.621 162.768 285.325 162.733C285.029 162.697 284.729 162.752 284.465 162.89C280.215 165.088 268.882 172.063 243.511 185.848C229.901 193.255 187.437 214.76 180.221 218.834C180.022 218.003 175.399 202.622 172.438 194.122C171.758 191.733 170.873 189.406 169.792 187.166C169.334 186.368 168.315 185.197 167.155 185.333C163.605 185.746 20.6993 219.883 19.2392 220.27C16.651 220.876 14.1158 221.687 11.6579 222.696C11.4845 222.789 11.3503 222.94 11.2797 223.123C11.2092 223.306 11.2068 223.508 11.2732 223.693C11.3396 223.878 11.4702 224.033 11.6414 224.13C11.8127 224.227 12.0132 224.26 12.2065 224.222C13.1494 224.064 13.4267 224.059 14.6752 223.908C17.0557 223.579 166.127 188.624 167.308 188.26C167.826 190.472 168.493 192.647 169.307 194.769C170.257 197.717 175.706 215.249 176.127 216.702C176.829 219.076 177.135 222.366 179.418 221.883C182.734 222.413 268.431 176.618 284.741 166.378C287.732 171.464 287.15 170.159 295.06 182.542C295.203 182.807 295.412 183.032 295.667 183.195C295.922 183.357 296.215 183.452 296.517 183.47C296.819 183.488 297.121 183.428 297.393 183.297C297.665 183.166 297.899 182.968 298.073 182.721C312.622 161.962 324.422 142.94 336.119 122.528C339.821 124.111 343.591 125.536 347.43 126.803C347.556 126.845 347.689 126.858 347.821 126.841C347.952 126.824 348.078 126.777 348.189 126.705C348.3 126.632 348.393 126.536 348.461 126.422C348.528 126.309 348.569 126.181 348.58 126.05Z" fill="#EF233C"/>
<path d="M281.013 132.785C279.888 132.184 278.625 131.883 277.348 131.91C277.531 130.693 277.864 129.53 278.114 128.315C278.209 127.84 277.551 127.362 277.254 127.893C276.571 129.124 276.138 130.476 275.977 131.872C274.722 131.802 273.467 132.02 272.311 132.509C272.23 132.553 272.166 132.621 272.127 132.705C272.089 132.788 272.078 132.881 272.098 132.971C272.117 133.061 272.165 133.142 272.234 133.203C272.304 133.263 272.391 133.3 272.484 133.307C273.597 133.366 274.714 133.36 275.827 133.289C275.597 134.689 275.74 136.126 276.244 137.455C276.299 137.558 276.387 137.641 276.493 137.691C276.6 137.741 276.72 137.755 276.835 137.733C276.95 137.71 277.055 137.651 277.134 137.565C277.213 137.478 277.262 137.369 277.274 137.253C277.36 135.953 277.348 134.648 277.239 133.35C278.436 133.581 279.651 133.705 280.87 133.719C281.272 133.655 281.334 132.999 281.013 132.785ZM262.905 71.3384C261.704 70.9014 260.386 70.9007 259.186 71.3366C258.594 69.8032 257.525 68.4958 256.133 67.604C256.036 67.5439 255.921 67.52 255.808 67.5365C255.695 67.5529 255.591 67.6087 255.516 67.6938C255.441 67.779 255.399 67.8878 255.398 68.001C255.396 68.1141 255.435 68.2241 255.508 68.3113C256.358 69.3808 257.104 70.5265 257.739 71.7335C256.64 72.0176 255.618 72.5404 254.749 73.264C254.677 73.3272 254.629 73.4119 254.611 73.505C254.593 73.5981 254.607 73.6944 254.65 73.7792C254.693 73.864 254.763 73.9325 254.849 73.9741C254.935 74.0158 255.032 74.0283 255.126 74.0097C256.182 73.7455 257.182 73.299 258.198 72.965C258.396 73.6294 258.518 74.3135 258.562 75.0047C258.534 75.6517 258.608 76.2993 258.781 76.9241C258.827 77.0117 258.896 77.0859 258.98 77.1395C259.064 77.1932 259.161 77.2245 259.261 77.2304C259.36 77.2364 259.46 77.2167 259.55 77.1734C259.64 77.1301 259.717 77.0645 259.773 76.9831C260.315 75.5684 260.273 73.9986 259.656 72.6131C260.755 72.5612 261.839 72.3299 262.862 71.9284C263.076 71.7872 263.141 71.441 262.905 71.3384ZM333.734 53.168C334.747 51.8758 335.321 50.2983 335.372 48.6619C335.376 48.551 335.34 48.4423 335.271 48.3551C335.201 48.2679 335.103 48.2078 334.993 48.1854C334.883 48.1629 334.769 48.1797 334.671 48.2326C334.572 48.2856 334.496 48.3713 334.455 48.4747C333.967 49.7484 333.361 50.9746 332.646 52.1376C331.837 51.3473 330.858 50.7496 329.782 50.3899C329.4 50.2787 328.983 50.758 329.321 51.0859C330.072 51.8538 330.988 52.4565 331.831 53.1588C330.233 54.8587 329.356 54.8238 328.716 55.6918C328.659 55.7756 328.625 55.8731 328.619 55.9741C328.613 56.0751 328.634 56.176 328.681 56.266C328.728 56.3561 328.798 56.4321 328.884 56.4862C328.971 56.5402 329.07 56.5702 329.172 56.5731C329.922 56.4452 330.637 56.1699 331.277 55.7636C331.917 55.3572 332.468 54.828 332.898 54.2071C333.505 55.1195 334.266 55.9216 335.148 56.5782C335.336 56.676 335.677 56.5866 335.65 56.3233C335.428 55.0731 334.745 53.9487 333.734 53.168ZM332.912 11.4243C329.889 7.0008 324.941 2.92849 319.289 3.07344C319.211 3.07056 319.133 3.09031 319.065 3.13033C318.998 3.17034 318.943 3.22889 318.909 3.29889C318.874 3.36889 318.861 3.44735 318.87 3.52476C318.88 3.60216 318.912 3.6752 318.963 3.73503C321.213 6.53026 322.351 10.045 322.162 13.6131C321.595 13.1535 320.94 12.8132 320.236 12.6133C319.532 12.4133 318.795 12.3579 318.069 12.4503C317.692 12.4932 317.706 12.975 317.939 13.1659C318.774 14.1421 319.35 15.3092 319.615 16.5612C319.88 17.8131 319.825 19.1104 319.456 20.3354C318.942 22.673 317.958 24.6959 318.456 27.1379C318.836 29.1394 319.939 30.9359 321.559 32.1904C323.18 33.4448 325.206 34.0711 327.257 33.9516C335.388 33.4385 339.694 21.3441 332.912 11.4243ZM328.473 27.7044C328.039 27.8759 327.568 27.9366 327.104 27.8809C326.64 27.8253 326.198 27.6552 325.817 27.3861C325.437 27.117 325.131 26.7577 324.927 26.341C324.722 25.9243 324.627 25.4637 324.65 25.0014C324.444 24.172 324.549 23.2975 324.943 22.5391C325.338 21.7808 325.997 21.19 326.798 20.8757C327.69 20.714 328.612 20.8971 329.374 21.3873C330.136 21.8775 330.679 22.6377 330.894 23.5119C331.108 24.3861 330.976 25.3079 330.526 26.0883C330.076 26.8686 329.341 27.4483 328.472 27.7083L328.473 27.7044ZM310.17 68.119C306.008 60.3941 298.772 52.8423 289.556 51.9001C289.487 51.8972 289.418 51.912 289.356 51.943C289.294 51.9741 289.241 52.0204 289.202 52.0775C289.163 52.1346 289.14 52.2006 289.134 52.2692C289.128 52.3379 289.14 52.4069 289.169 52.4696C292.541 58.0749 293.633 64.739 292.224 71.1074C291.401 70.0812 290.359 69.2487 289.172 68.6701C287.986 68.0916 286.684 67.7814 285.363 67.7621C285.284 67.76 285.207 67.7803 285.14 67.8205C285.073 67.8607 285.019 67.919 284.985 67.9887C284.95 68.0584 284.937 68.1365 284.946 68.2136C284.955 68.2907 284.986 68.3636 285.036 68.4237L285.098 68.4928C285.099 68.5466 285.111 68.5998 285.133 68.6488C286.267 70.4665 286.954 72.5221 287.139 74.6499C287.324 76.7777 287.002 78.9182 286.199 80.8989C284.88 84.8334 282.447 88.1784 282.612 92.5012C282.707 96.1071 284.178 99.5451 286.727 102.124C289.276 104.702 292.715 106.23 296.353 106.399C310.244 107.014 320.292 86.9134 310.17 68.119ZM297.52 98.0371C294.241 98.8425 291.288 97.3185 291.149 91.8064C291.049 87.7741 294.222 84.398 297.957 85.6704C299.185 86.1423 300.257 86.9453 301.049 87.9885C301.841 89.0318 302.323 90.2736 302.44 91.5734C302.512 93.0513 302.059 94.5065 301.16 95.6871C300.261 96.8676 298.974 97.699 297.52 98.0371ZM378.753 53.0585C378.205 45.9255 375.334 37.906 368.789 34.1196C368.721 34.0787 368.642 34.058 368.563 34.0602C368.483 34.0623 368.405 34.0872 368.34 34.1318C368.274 34.1764 368.223 34.2388 368.192 34.3117C368.161 34.3845 368.152 34.4646 368.166 34.5424C368.754 39.8439 367.3 45.1674 364.095 49.4478C363.807 48.4027 363.29 47.4327 362.582 46.6064C361.874 45.7802 360.992 45.1178 359.997 44.6662C359.945 44.6476 359.889 44.6404 359.834 44.6451C359.778 44.6498 359.725 44.6662 359.676 44.6932C359.628 44.7203 359.586 44.7573 359.553 44.8019C359.521 44.8464 359.498 44.8974 359.487 44.9513C359.399 45.3635 361.07 50.0663 355.528 55.4889C353.013 57.9479 350.274 59.7147 349.074 63.1503C348.077 65.9231 348.153 68.9649 349.288 71.688C350.422 74.4112 352.534 76.6227 355.216 77.8953C365.538 82.8179 380.139 70.9412 378.753 53.0585ZM365.038 70.1167C362.691 76.3601 352.256 72.7946 356.576 66.5242C357.09 65.358 358.024 64.4243 359.197 63.9058C360.37 63.3873 361.696 63.3215 362.916 63.7211C363.973 64.3701 364.765 65.3674 365.153 66.5372C365.541 67.7071 365.501 68.9746 365.038 70.1167Z" fill="#EF233C"/>
<path d="M107.468 12.1915C107.216 10.9614 106.628 9.82482 105.769 8.90734C104.91 7.98986 103.814 7.32721 102.603 6.99259C101.816 6.88013 101.161 7.12715 100.407 6.81764C99.7136 6.43983 99.0539 6.00306 98.4355 5.51215C95.1505 3.48129 90.0789 3.15857 84.8976 6.25317C78.7481 9.94524 74.9042 16.3596 69.2868 20.7383C57.0956 30.2543 39.7391 33.4927 31.5327 43.5489C31.477 43.6329 31.4414 43.7285 31.4286 43.8284C31.4158 43.9282 31.4261 44.0297 31.4588 44.125C31.4915 44.2203 31.5456 44.3068 31.617 44.3779C31.6885 44.449 31.7753 44.5028 31.8709 44.5351C37.61 45.9332 41.3895 50.9786 43.4141 56.2522C45.914 62.777 46.0632 69.9504 48.0474 76.6224C48.0713 76.7168 48.1159 76.8046 48.178 76.8796C48.2402 76.9546 48.3182 77.0148 48.4066 77.056C48.4949 77.0971 48.5913 77.1181 48.6887 77.1174C48.7862 77.1168 48.8823 77.0944 48.97 77.0521C65.182 70.1112 78.525 58.3025 81.4029 41.0008C82.3279 35.4524 82.4194 29.0816 86.595 24.8394C90.4188 20.9492 96.0917 19.7464 100.12 16.1331C101.105 18.4719 102.644 20.5368 104.606 22.1499C104.416 23.8564 104.227 25.561 103.994 27.2436C103.292 27.2018 101.174 25.5688 99.4742 27.6357C99.2845 27.8659 99.6154 28.2237 99.866 28.0763C101.847 26.9478 102.357 27.9655 103.846 28.2685C103.653 29.6558 103.417 31.0368 103.138 32.4096C102.524 35.3236 101.713 38.6006 99.0299 40.3135C97.8053 41.0285 96.432 41.4519 95.0167 41.5507C93.6014 41.6495 92.1823 41.4212 90.8695 40.8834C87.764 39.7095 85.8729 37.3731 83.5806 35.1443C83.183 34.769 82.387 35.2066 82.7292 35.7332C83.9306 37.5653 85.503 39.1257 87.3452 40.3138C89.1873 41.5019 91.2583 42.2913 93.4244 42.6312C93.2749 43.1793 93.1902 43.743 93.172 44.3108C93.1047 44.6808 93.1113 45.0605 93.1915 45.428C93.2716 45.7955 93.4237 46.1437 93.6389 46.4523C93.6903 46.5075 93.755 46.5486 93.8269 46.5716C93.8987 46.5946 93.9752 46.5988 94.0492 46.5838C94.1231 46.5688 94.1919 46.5351 94.249 46.4859C94.3061 46.4367 94.3496 46.3737 94.3753 46.3029C94.5201 45.6724 94.5213 45.0174 94.3787 44.3863C94.3706 43.8062 94.4682 43.2691 94.502 42.6991C96.0513 42.7327 97.5832 42.3687 98.9511 41.642C100.27 40.8103 101.394 39.7033 102.244 38.3971C103.094 37.0909 103.651 35.6163 103.877 34.0746C104.815 30.3665 105.301 26.5585 105.324 22.7336C105.366 22.7806 105.43 22.8056 105.472 22.8526C105.553 22.9035 105.644 22.9358 105.739 22.9471C105.834 22.9584 105.93 22.9485 106.02 22.918C106.111 22.8874 106.194 22.8371 106.262 22.7707C106.331 22.7043 106.384 22.6234 106.417 22.5339C107.989 19.3215 108.361 15.6544 107.468 12.1915ZM93.1929 7.15976C91.6942 7.30909 90.2211 7.65079 88.81 8.17641C87.3564 8.90345 86.64 10.1825 85.3957 11.0997C85.0729 11.3221 84.4887 11.156 84.5604 10.6984C85.0306 7.59816 90.4744 5.03891 93.2423 6.32605C93.3305 6.35825 93.406 6.41799 93.4575 6.49642C93.5091 6.57484 93.5339 6.66775 93.5283 6.76137C93.5228 6.85499 93.4871 6.94432 93.4267 7.01609C93.3663 7.08785 93.2843 7.13824 93.1929 7.15976ZM146.121 78.6921C145.944 78.7028 145.745 78.691 145.568 78.7037C137.252 79.0016 126.233 82.7848 118.62 86.129C118.223 86.2987 118.457 87.0217 118.885 86.8713C127.201 84.1736 138 79.6991 146.746 79.962C146.524 79.5456 146.315 79.122 146.121 78.6921ZM198.358 150.711C196.776 144.749 194.985 138.797 193.027 132.935C192.664 133.152 192.261 133.293 191.841 133.349C193.818 139.169 195.535 145.061 197.168 150.971C197.372 151.732 198.56 151.48 198.358 150.711ZM189.81 121.602C189.779 121.546 189.731 121.5 189.672 121.473C189.614 121.446 189.548 121.439 189.485 121.453C189.422 121.467 189.365 121.501 189.323 121.549C189.28 121.598 189.255 121.659 189.251 121.724C189.208 123.196 189.653 124.743 189.758 126.223C189.989 130.038 189.68 133.867 188.842 137.596C188.763 138.351 188.522 139.08 188.135 139.733C186.918 141.091 186.622 138.484 186.404 136.548C186.297 132.055 185.75 127.584 184.772 123.196C184.746 123.111 184.688 123.038 184.611 122.993C184.534 122.948 184.442 122.934 184.355 122.953C184.268 122.972 184.191 123.023 184.14 123.097C184.089 123.17 184.067 123.26 184.08 123.349C184.205 124.305 184.353 125.264 184.459 126.219C180.407 126.519 179.141 123.198 179.83 119.154C180.338 116.168 181.549 113.201 180.361 110.203C180.225 109.886 179.706 110.075 179.768 110.409C180.766 114.389 178.346 118.075 178.723 122.06C178.802 123.552 179.443 124.959 180.519 125.998C181.059 126.489 181.705 126.849 182.407 127.05C183.108 127.252 183.847 127.289 184.565 127.161C184.889 129.763 185.185 132.349 185.319 135.004C185.393 136.372 185.328 141.939 187.962 141.017C189.289 140.567 189.448 138.787 189.662 137.64C190.43 134.019 190.694 130.308 190.447 126.614C190.518 124.92 190.303 123.225 189.81 121.602Z" fill="#191919"/>
<path d="M193.636 119.431C193.581 119.382 193.513 119.348 193.439 119.332C193.365 119.316 193.287 119.32 193.215 119.342C193.144 119.365 193.081 119.405 193.033 119.459C192.985 119.512 192.955 119.577 192.946 119.646C193.038 120.562 193.235 121.467 193.532 122.347C193.724 123.367 193.811 124.4 193.791 125.434C193.821 126.405 193.511 127.357 192.906 128.149C192.302 128.942 191.434 129.535 190.43 129.84C190.365 129.873 190.313 129.923 190.282 129.985C190.25 130.046 190.241 130.116 190.255 130.183C190.27 130.25 190.306 130.311 190.361 130.358C190.415 130.405 190.484 130.436 190.558 130.445C191.597 130.344 192.568 129.934 193.322 129.278C194.077 128.622 194.573 127.756 194.736 126.811C194.956 125.52 194.955 124.204 194.735 122.908C194.712 121.684 194.333 120.483 193.636 119.431ZM197.128 117.911C197.081 117.861 197.019 117.826 196.949 117.808C196.88 117.791 196.807 117.793 196.74 117.815C196.673 117.836 196.614 117.875 196.572 117.927C196.529 117.98 196.505 118.042 196.502 118.108C196.388 119.037 197.27 120.135 197.633 122.633C197.883 124.312 197.69 127.157 195.32 127.422C194.945 127.464 195.007 128.001 195.378 128.023C197.491 128.171 198.436 126.007 198.599 124.418C198.685 123.276 198.581 122.126 198.288 121.008C198.221 119.9 197.82 118.828 197.128 117.911Z" fill="#191919"/>
<path d="M197.053 111.395C194.591 108.136 190.746 106.194 188.619 102.625C188.441 102.334 187.869 102.473 188.005 102.828C189.266 106.343 192.828 108.266 195.277 110.923C196.716 112.502 197.769 114.377 198.355 116.407C198.941 118.437 199.045 120.567 198.66 122.639C198.556 123.282 199.578 123.32 199.703 122.7C200.076 120.743 200.034 118.73 199.579 116.786C199.123 114.842 198.264 113.007 197.053 111.395Z" fill="#191919"/>
<path d="M189.393 101.454C182.396 86.1745 170.588 68.2789 158.436 57.9586C148.212 49.3686 135.846 43.6481 122.631 41.395C104.172 37.8714 102.465 44.2715 94.1127 46.6986C92.0287 47.3046 89.8155 47.3318 87.7152 46.7771C86.6957 46.6167 85.7189 46.2556 84.8426 45.7152C83.9663 45.1747 83.2083 44.466 82.6137 43.6309C82.55 43.52 82.4454 43.4376 82.3219 43.401C82.1983 43.3644 82.0653 43.3764 81.9506 43.4345C81.8359 43.4926 81.7484 43.5923 81.7064 43.7128C81.6643 43.8332 81.671 43.9652 81.725 44.081C83.0246 46.7843 86.5465 47.8901 89.3316 48.2303C96.2819 49.0754 101.483 43.4031 107.508 42.0163C114.271 40.4584 123.645 42.5264 130.267 44.329C138.793 46.6864 146.81 50.5738 153.919 55.7974C167.835 66.0306 180.763 85.4324 188.103 101.335C185.624 102.288 183.423 103.832 181.694 105.83C181.652 105.88 181.619 105.937 181.595 105.998C180.843 106.722 180.114 107.463 179.406 108.208C170.611 100.994 162.325 93.1934 154.606 84.8605C152.306 82.1248 150.207 79.23 148.325 76.1983C148.162 75.9698 147.73 76.1841 147.823 76.4526C150.629 84.793 172.358 103.614 179.215 109.27C179.301 109.331 179.406 109.362 179.513 109.356C179.619 109.351 179.72 109.31 179.799 109.239C180.558 108.386 181.356 107.604 182.157 106.798C182.216 106.755 182.27 106.707 182.319 106.654C182.343 106.634 182.367 106.591 182.392 106.572C183.916 104.825 185.84 103.462 188.003 102.596C188.003 102.601 188.005 102.607 188.008 102.611C188.012 102.615 188.017 102.618 188.023 102.618L189.313 102.106C189.381 102.012 189.423 101.904 189.437 101.79C189.451 101.676 189.436 101.56 189.393 101.454Z" fill="#191919"/>
<path d="M223.226 141.398C222.499 137.793 220.644 130.743 219.689 127.213C219.395 125.667 218.913 124.163 218.253 122.733C218.078 122.414 217.514 122.496 217.536 122.883C217.559 124.267 217.857 125.191 219.731 132.11C220.581 135.28 221.433 138.451 222.469 141.567C222.491 141.667 222.553 141.753 222.64 141.808C222.727 141.863 222.832 141.881 222.933 141.859C223.033 141.836 223.12 141.775 223.175 141.689C223.23 141.602 223.248 141.498 223.226 141.398ZM237.912 141.32C239.433 136.996 240.563 132.546 241.29 128.023C241.663 126.568 241.797 125.062 241.686 123.565C241.641 123.209 241.152 123.248 241.048 123.527C240.27 125.353 240.553 128.602 237.155 141.071C237.133 141.167 237.149 141.268 237.198 141.354C237.247 141.439 237.326 141.504 237.42 141.535C237.515 141.566 237.617 141.561 237.708 141.522C237.799 141.482 237.872 141.41 237.912 141.32ZM252.02 146.187C256.687 142.387 261.071 138.256 265.136 133.825C265.468 133.428 264.836 132.885 264.462 133.235C262.286 135.283 260.233 137.446 258.098 139.516C255.963 141.585 253.764 143.608 251.584 145.685C251.531 145.745 251.502 145.823 251.502 145.904C251.502 145.984 251.531 146.062 251.584 146.123C251.637 146.184 251.71 146.224 251.79 146.236C251.87 146.247 251.952 146.23 252.02 146.187ZM133.137 157.511C131.406 153.551 128.505 147.692 127.241 145.052C126.684 143.688 125.98 142.387 125.143 141.171C125.089 141.114 125.019 141.076 124.942 141.063C124.864 141.05 124.785 141.062 124.715 141.097C124.646 141.133 124.59 141.19 124.555 141.26C124.521 141.33 124.511 141.409 124.527 141.486C124.959 142.892 125.546 144.246 126.278 145.524C126.949 146.882 130.992 155.143 132.423 157.864C132.471 157.958 132.553 158.029 132.654 158.063C132.754 158.096 132.863 158.089 132.958 158.042C133.053 157.995 133.125 157.913 133.158 157.813C133.192 157.714 133.184 157.605 133.137 157.511ZM142.211 157.369C143.192 153.168 143.878 148.288 144.51 143.971C144.819 142.522 144.945 141.039 144.882 139.558C144.838 139.17 144.285 139.193 144.155 139.515C143.759 140.883 143.526 142.293 143.464 143.716C143.264 145.22 142.019 154.265 141.641 157.276C141.556 157.595 142.131 157.718 142.211 157.369ZM151.139 161.921C152.975 160.119 154.677 158.199 156.384 156.278C158.168 154.566 159.796 152.7 161.247 150.701C161.29 150.624 161.305 150.535 161.289 150.449C161.274 150.363 161.23 150.284 161.164 150.226C161.097 150.168 161.013 150.135 160.925 150.131C160.837 150.127 160.75 150.153 160.679 150.204C159.709 151.044 158.818 151.969 158.016 152.969C155.629 155.658 152.943 158.568 150.593 161.449C150.353 161.762 150.861 162.193 151.139 161.921Z" fill="#EF233C"/>
</svg>
